<?xml version="1.0" encoding="UTF-8" standalone="no"?>
<!DOCTYPE svg PUBLIC "-//W3C//DTD SVG 1.1//EN"
 "http://www.w3.org/Graphics/SVG/1.1/DTD/svg11.dtd">
<!-- Generated by graphviz version 2.38.0 (20140413.2041)
 -->
<!-- Title: dependencies Pages: 1 -->
<svg width="919pt" height="804pt"
 viewBox="0.00 0.00 919.00 804.00" xmlns="http://www.w3.org/2000/svg" xmlns:xlink="http://www.w3.org/1999/xlink">
<g id="graph0" class="graph" transform="scale(1 1) rotate(0) translate(4 800)">
<title>dependencies</title>
<polygon fill="#111519" stroke="none" points="-4,4 -4,-800 915,-800 915,4 -4,4"/>
<!-- check color for\nexperimental_suggestion\nfigure, blue and lilac
20170119T161940Z:
convinve Ben about\nnot using colors but\nsolid vs dashed
 -->
<g id="activate(&#39;task&#39;, &#39;check color for\nexperimental_suggestion\nfigure, blue and lilac
20170119T161940Z:
convinve Ben about\nnot using colors but\nsolid vs dashed
&#39;)" class="node"><title>check color for\nexperimental_suggestion\nfigure, blue and lilac
20170119T161940Z:
convinve Ben about\nnot using colors but\nsolid vs dashed
</title>
<path fill="#222299" stroke="white" d="M294.151,-589.116C294.151,-589.116 134.151,-589.116 134.151,-589.116 128.151,-589.116 122.151,-583.116 122.151,-577.116 122.151,-577.116 122.151,-467.116 122.151,-467.116 122.151,-461.116 128.151,-455.116 134.151,-455.116 134.151,-455.116 294.151,-455.116 294.151,-455.116 300.151,-455.116 306.151,-461.116 306.151,-467.116 306.151,-467.116 306.151,-577.116 306.151,-577.116 306.151,-583.116 300.151,-589.116 294.151,-589.116"/>
<text text-anchor="middle" x="214.151" y="-572.316" font-family="Times,serif" font-size="16.00" fill="white">check color for</text>
<text text-anchor="middle" x="214.151" y="-554.316" font-family="Times,serif" font-size="16.00" fill="white">experimental_suggestion</text>
<text text-anchor="middle" x="214.151" y="-536.316" font-family="Times,serif" font-size="16.00" fill="white">figure, blue and lilac</text>
<text text-anchor="middle" x="214.151" y="-518.316" font-family="Times,serif" font-size="16.00" fill="white">20170119T161940Z:</text>
<text text-anchor="middle" x="214.151" y="-500.316" font-family="Times,serif" font-size="16.00" fill="white">convinve Ben about</text>
<text text-anchor="middle" x="214.151" y="-482.316" font-family="Times,serif" font-size="16.00" fill="white">not using colors but</text>
<text text-anchor="middle" x="214.151" y="-464.316" font-family="Times,serif" font-size="16.00" fill="white">solid vs dashed</text>
</g>
<!-- ben -->
<g id="activate(&#39;people&#39;, &#39;ben&#39;)" class="node"><title>ben</title>
<polygon fill="#dd9900" stroke="white" points="102.529,-712.803 102.529,-727.715 86.7129,-738.259 64.3454,-738.259 48.5292,-727.715 48.5292,-712.803 64.3454,-702.259 86.7129,-702.259 102.529,-712.803"/>
<text text-anchor="middle" x="75.5292" y="-716.559" font-family="Times,serif" font-size="14.00">ben</text>
</g>
<!-- check color for\nexperimental_suggestion\nfigure, blue and lilac
20170119T161940Z:
convinve Ben about\nnot using colors but\nsolid vs dashed
&#45;&gt;ben -->
<g id="edge1" class="edge"><title>check color for\nexperimental_suggestion\nfigure, blue and lilac
20170119T161940Z:
convinve Ben about\nnot using colors but\nsolid vs dashed
&#45;&gt;ben</title>
<path fill="none" stroke="white" d="M141.352,-589.228C141.352,-644.562 141.352,-714 141.352,-714 141.352,-714 112.682,-714 112.682,-714"/>
<polygon fill="white" stroke="white" points="112.682,-710.5 102.682,-714 112.682,-717.5 112.682,-710.5"/>
</g>
<!-- figure -->
<g id="activate(&#39;outcome&#39;, &#39;figure&#39;)" class="node"><title>figure</title>
<polygon fill="#000000" stroke="white" stroke-width="2" points="38.1143,-337.398 40.2412,-337.497 42.3461,-337.644 44.4204,-337.84 46.4557,-338.084 48.4438,-338.375 50.377,-338.713 52.2476,-339.097 54.0486,-339.525 55.7733,-339.996 57.4155,-340.509 58.9694,-341.063 60.4299,-341.657 61.7923,-342.287 63.0526,-342.954 64.2074,-343.655 65.2539,-344.387 66.1896,-345.15 67.0131,-345.94 67.7232,-346.757 68.3195,-347.597 68.8022,-348.458 69.1718,-349.338 69.4296,-350.235 69.5773,-351.145 69.617,-352.067 69.5514,-352.998 69.3834,-353.936 69.1166,-354.877 68.7544,-355.82 68.3009,-356.761 67.7604,-357.699 67.1371,-358.63 66.4357,-359.552 65.6607,-360.463 64.817,-361.359 63.9091,-362.239 62.9418,-363.101 61.9197,-363.94 60.8474,-364.757 59.7293,-365.547 58.5698,-366.31 57.3728,-367.043 56.1423,-367.743 54.8819,-368.41 53.5952,-369.041 52.2853,-369.634 50.9552,-370.188 49.6077,-370.701 48.2451,-371.173 46.8699,-371.601 45.4839,-371.984 44.089,-372.322 42.6869,-372.613 41.2788,-372.857 39.8662,-373.053 38.4502,-373.201 37.0318,-373.299 35.612,-373.349 34.1918,-373.349 32.772,-373.299 31.3536,-373.201 29.9376,-373.053 28.525,-372.857 27.1169,-372.613 25.7148,-372.322 24.3199,-371.984 22.9339,-371.601 21.5587,-371.173 20.1961,-370.701 18.8486,-370.188 17.5185,-369.634 16.2086,-369.041 14.9219,-368.41 13.6615,-367.743 12.431,-367.043 11.234,-366.31 10.0744,-365.547 8.95638,-364.757 7.8841,-363.94 6.86203,-363.101 5.89473,-362.239 4.98684,-361.359 4.14306,-360.463 3.3681,-359.552 2.66667,-358.63 2.04341,-357.699 1.50285,-356.761 1.04939,-355.82 0.687233,-354.877 0.420342,-353.936 0.25241,-352.998 0.186806,-352.067 0.22654,-351.145 0.374221,-350.235 0.632021,-349.338 1.00164,-348.458 1.48428,-347.597 2.0806,-346.757 2.79072,-345.94 3.61418,-345.15 4.54994,-344.387 5.59634,-343.655 6.75115,-342.954 8.0115,-342.287 9.37393,-341.657 10.8344,-341.063 12.3883,-340.509 14.0305,-339.996 15.7552,-339.525 17.5562,-339.097 19.4268,-338.713 21.3599,-338.375 23.3481,-338.084 25.3834,-337.84 27.4577,-337.644 29.5626,-337.497 31.6895,-337.398 33.8296,-337.349 35.9742,-337.349 38.1143,-337.398"/>
<text text-anchor="middle" x="34.9019" y="-351.649" font-family="Times,serif" font-size="14.00" fill="white">figure</text>
</g>
<!-- check color for\nexperimental_suggestion\nfigure, blue and lilac
20170119T161940Z:
convinve Ben about\nnot using colors but\nsolid vs dashed
&#45;&gt;figure -->
<g id="edge16" class="edge"><title>check color for\nexperimental_suggestion\nfigure, blue and lilac
20170119T161940Z:
convinve Ben about\nnot using colors but\nsolid vs dashed
&#45;&gt;figure</title>
<path fill="none" stroke="white" d="M164.82,-454.982C164.82,-413.06 164.82,-367 164.82,-367 164.82,-367 67.532,-367 67.532,-367"/>
<polygon fill="white" stroke="white" points="67.532,-363.5 57.532,-367 67.5319,-370.5 67.532,-363.5"/>
</g>
<!-- paper -->
<g id="activate(&#39;project&#39;, &#39;paper&#39;)" class="node"><title>paper</title>
<polygon fill="#115500" stroke="#22ff22" stroke-width="2" points="485.073,-436.975 441.671,-418.975 485.073,-400.975 528.475,-418.975 485.073,-436.975"/>
<text text-anchor="middle" x="485.073" y="-415.275" font-family="Times,serif" font-size="14.00" fill="#ffffff">paper</text>
</g>
<!-- check color for\nexperimental_suggestion\nfigure, blue and lilac
20170119T161940Z:
convinve Ben about\nnot using colors but\nsolid vs dashed
&#45;&gt;paper -->
<g id="edge7" class="edge"><title>check color for\nexperimental_suggestion\nfigure, blue and lilac
20170119T161940Z:
convinve Ben about\nnot using colors but\nsolid vs dashed
&#45;&gt;paper</title>
<path fill="none" stroke="#aa2211" d="M283.152,-455.001C283.152,-434.854 283.152,-418 283.152,-418 283.152,-418 433.724,-418 433.724,-418"/>
<polygon fill="#aa2211" stroke="#aa2211" points="433.724,-421.5 443.724,-418 433.724,-414.5 433.724,-421.5"/>
</g>
<!-- synchronization -->
<g id="activate(&#39;tags&#39;, &#39;synchronization&#39;)" class="node"><title>synchronization</title>
<polygon fill="#000000" stroke="white" stroke-width="2" points="380.446,-355.747 384.987,-355.846 389.481,-355.993 393.91,-356.189 398.256,-356.433 402.501,-356.724 406.628,-357.062 410.622,-357.446 414.467,-357.873 418.15,-358.345 421.656,-358.858 424.974,-359.412 428.092,-360.006 431.001,-360.636 433.692,-361.303 436.157,-362.004 438.391,-362.736 440.389,-363.499 442.148,-364.289 443.664,-365.106 444.937,-365.946 445.967,-366.807 446.757,-367.687 447.307,-368.584 447.622,-369.494 447.707,-370.416 447.567,-371.347 447.208,-372.285 446.639,-373.226 445.865,-374.169 444.897,-375.11 443.743,-376.048 442.412,-376.979 440.915,-377.901 439.26,-378.812 437.459,-379.708 435.52,-380.588 433.455,-381.449 431.273,-382.289 428.983,-383.106 426.596,-383.896 424.12,-384.659 421.565,-385.392 418.937,-386.092 416.246,-386.759 413.499,-387.39 410.702,-387.983 407.863,-388.537 404.986,-389.05 402.076,-389.522 399.14,-389.95 396.181,-390.333 393.203,-390.671 390.209,-390.962 387.203,-391.206 384.187,-391.402 381.163,-391.55 378.135,-391.648 375.104,-391.698 372.071,-391.698 369.04,-391.648 366.012,-391.55 362.988,-391.402 359.972,-391.206 356.966,-390.962 353.972,-390.671 350.994,-390.333 348.035,-389.95 345.099,-389.522 342.189,-389.05 339.312,-388.537 336.472,-387.983 333.676,-387.39 330.928,-386.759 328.238,-386.092 325.61,-385.392 323.055,-384.659 320.579,-383.896 318.192,-383.106 315.902,-382.289 313.72,-381.449 311.655,-380.588 309.716,-379.708 307.915,-378.812 306.26,-377.901 304.763,-376.979 303.432,-376.048 302.278,-375.11 301.31,-374.169 300.536,-373.226 299.966,-372.285 299.608,-371.347 299.468,-370.416 299.553,-369.494 299.868,-368.584 300.418,-367.687 301.208,-366.807 302.238,-365.946 303.511,-365.106 305.027,-364.289 306.786,-363.499 308.783,-362.736 311.018,-362.004 313.483,-361.303 316.174,-360.636 319.083,-360.006 322.201,-359.412 325.519,-358.858 329.025,-358.345 332.708,-357.873 336.553,-357.446 340.547,-357.062 344.674,-356.724 348.919,-356.433 353.265,-356.189 357.694,-355.993 362.188,-355.846 366.729,-355.747 371.298,-355.698 375.877,-355.698 380.446,-355.747"/>
<text text-anchor="middle" x="373.587" y="-369.998" font-family="Times,serif" font-size="14.00" fill="white">synchronization</text>
</g>
<!-- check color for\nexperimental_suggestion\nfigure, blue and lilac
20170119T161940Z:
convinve Ben about\nnot using colors but\nsolid vs dashed
&#45;&gt;synchronization -->
<g id="edge19" class="edge"><title>check color for\nexperimental_suggestion\nfigure, blue and lilac
20170119T161940Z:
convinve Ben about\nnot using colors but\nsolid vs dashed
&#45;&gt;synchronization</title>
<path fill="none" stroke="white" stroke-width="5" stroke-dasharray="1,5" d="M266.777,-454.931C266.777,-418.971 266.777,-382 266.777,-382 266.777,-382 313.87,-382 313.87,-382"/>
<polygon fill="white" stroke="white" stroke-width="5" points="313.87,-382.438 314.87,-382 313.87,-381.563 313.87,-382.438"/>
</g>
<!-- started -->
<g id="activate(&#39;state&#39;, &#39;started&#39;)" class="node"><title>started</title>
<ellipse fill="none" stroke="white" cx="296.158" cy="-761.123" rx="35.194" ry="35.194"/>
<text text-anchor="middle" x="296.158" y="-757.423" font-family="Times,serif" font-size="14.00" fill="white">started</text>
</g>
<!-- check color for\nexperimental_suggestion\nfigure, blue and lilac
20170119T161940Z:
convinve Ben about\nnot using colors but\nsolid vs dashed
&#45;&gt;started -->
<g id="edge13" class="edge"><title>check color for\nexperimental_suggestion\nfigure, blue and lilac
20170119T161940Z:
convinve Ben about\nnot using colors but\nsolid vs dashed
&#45;&gt;started</title>
<path fill="none" stroke="white" d="M160.552,-589.391C160.552,-650.781 160.552,-732 160.552,-732 160.552,-732 266.44,-732 266.44,-732"/>
<polygon fill="white" stroke="white" points="266.44,-735.5 276.44,-732 266.44,-728.5 266.44,-735.5"/>
</g>
<!-- elastic scan for other\ncell
 -->
<g id="activate(&#39;task&#39;, &#39;elastic scan for other\ncell
&#39;)" class="node"><title>elastic scan for other\ncell
</title>
<path fill="#222299" stroke="white" d="M238.158,-313.757C238.158,-313.757 107.158,-313.757 107.158,-313.757 101.158,-313.757 95.1585,-307.757 95.1585,-301.757 95.1585,-301.757 95.1585,-281.757 95.1585,-281.757 95.1585,-275.757 101.158,-269.757 107.158,-269.757 107.158,-269.757 238.158,-269.757 238.158,-269.757 244.158,-269.757 250.158,-275.757 250.158,-281.757 250.158,-281.757 250.158,-301.757 250.158,-301.757 250.158,-307.757 244.158,-313.757 238.158,-313.757"/>
<text text-anchor="middle" x="172.658" y="-296.957" font-family="Times,serif" font-size="16.00" fill="white">elastic scan for other</text>
<text text-anchor="middle" x="172.658" y="-278.957" font-family="Times,serif" font-size="16.00" fill="white">cell</text>
</g>
<!-- elastic scan for other\ncell
&#45;&gt;figure -->
<g id="edge2" class="edge"><title>elastic scan for other\ncell
&#45;&gt;figure</title>
<path fill="none" stroke="white" d="M98.8438,-313.82C98.8438,-328.837 98.8438,-346 98.8438,-346 98.8438,-346 77.2475,-346 77.2475,-346"/>
<polygon fill="white" stroke="white" points="77.2475,-342.5 67.2475,-346 77.2475,-349.5 77.2475,-342.5"/>
</g>
<!-- elastic scan for other\ncell
&#45;&gt;synchronization -->
<g id="edge18" class="edge"><title>elastic scan for other\ncell
&#45;&gt;synchronization</title>
<path fill="none" stroke="white" stroke-width="5" stroke-dasharray="1,5" d="M207.489,-314.047C207.489,-334.289 207.489,-361 207.489,-361 207.489,-361 313.56,-361 313.56,-361"/>
<polygon fill="white" stroke="white" stroke-width="5" points="313.56,-361.438 314.56,-361 313.56,-360.563 313.56,-361.438"/>
</g>
<!-- paper.som -->
<g id="activate(&#39;project&#39;, &#39;paper.som&#39;)" class="node"><title>paper.som</title>
<polygon fill="#115500" stroke="#22ff22" stroke-width="2" points="371.233,-253.121 303.198,-235.121 371.233,-217.121 439.269,-235.121 371.233,-253.121"/>
<text text-anchor="middle" x="371.233" y="-231.421" font-family="Times,serif" font-size="14.00" fill="#ffffff">paper.som</text>
</g>
<!-- elastic scan for other\ncell
&#45;&gt;paper.som -->
<g id="edge10" class="edge"><title>elastic scan for other\ncell
&#45;&gt;paper.som</title>
<path fill="none" stroke="#aa2211" d="M178.78,-269.641C178.78,-258.365 178.78,-247 178.78,-247 178.78,-247 338.019,-247 338.019,-247"/>
<polygon fill="#aa2211" stroke="#aa2211" points="338.019,-250.5 348.019,-247 338.019,-243.5 338.019,-250.5"/>
</g>
<!-- what is the Young modulus\nof the distal striated\nfiber
20170119T161843Z:
discuss with ben
 -->
<g id="activate(&#39;task&#39;, &#39;what is the Young modulus\nof the distal striated\nfiber
20170119T161843Z:
discuss with ben
&#39;)" class="node"><title>what is the Young modulus\nof the distal striated\nfiber
20170119T161843Z:
discuss with ben
</title>
<path fill="#222299" stroke="white" d="M364.753,-709.027C364.753,-709.027 191.753,-709.027 191.753,-709.027 185.753,-709.027 179.753,-703.027 179.753,-697.027 179.753,-697.027 179.753,-623.027 179.753,-623.027 179.753,-617.027 185.753,-611.027 191.753,-611.027 191.753,-611.027 364.753,-611.027 364.753,-611.027 370.753,-611.027 376.753,-617.027 376.753,-623.027 376.753,-623.027 376.753,-697.027 376.753,-697.027 376.753,-703.027 370.753,-709.027 364.753,-709.027"/>
<text text-anchor="middle" x="278.253" y="-692.227" font-family="Times,serif" font-size="16.00" fill="white">what is the Young modulus</text>
<text text-anchor="middle" x="278.253" y="-674.227" font-family="Times,serif" font-size="16.00" fill="white">of the distal striated</text>
<text text-anchor="middle" x="278.253" y="-656.227" font-family="Times,serif" font-size="16.00" fill="white">fiber</text>
<text text-anchor="middle" x="278.253" y="-638.227" font-family="Times,serif" font-size="16.00" fill="white">20170119T161843Z:</text>
<text text-anchor="middle" x="278.253" y="-620.227" font-family="Times,serif" font-size="16.00" fill="white">discuss with ben</text>
</g>
<!-- what is the Young modulus\nof the distal striated\nfiber
20170119T161843Z:
discuss with ben
&#45;&gt;ben -->
<g id="edge17" class="edge"><title>what is the Young modulus\nof the distal striated\nfiber
20170119T161843Z:
discuss with ben
&#45;&gt;ben</title>
<path fill="none" stroke="white" d="M220.407,-709.262C220.407,-715.08 220.407,-719 220.407,-719 220.407,-719 112.78,-719 112.78,-719"/>
<polygon fill="white" stroke="white" points="112.78,-715.5 102.78,-719 112.78,-722.5 112.78,-715.5"/>
</g>
<!-- knowledge -->
<g id="activate(&#39;outcome&#39;, &#39;knowledge&#39;)" class="node"><title>knowledge</title>
<polygon fill="#000000" stroke="white" stroke-width="2" points="415.193,-724.819 418.577,-724.917 421.927,-725.065 425.228,-725.261 428.467,-725.505 431.631,-725.796 434.707,-726.134 437.684,-726.517 440.55,-726.945 443.295,-727.416 445.908,-727.93 448.381,-728.484 450.705,-729.077 452.873,-729.708 454.879,-730.375 456.716,-731.075 458.381,-731.808 459.871,-732.57 461.181,-733.361 462.311,-734.177 463.26,-735.017 464.028,-735.879 464.616,-736.759 465.026,-737.655 465.261,-738.566 465.325,-739.488 465.22,-740.419 464.953,-741.356 464.528,-742.298 463.952,-743.241 463.23,-744.182 462.37,-745.12 461.378,-746.051 460.262,-746.973 459.029,-747.883 457.686,-748.78 456.241,-749.66 454.702,-750.521 453.076,-751.361 451.369,-752.177 449.59,-752.968 447.745,-753.731 445.84,-754.463 443.882,-755.164 441.876,-755.83 439.828,-756.461 437.744,-757.054 435.627,-757.609 433.483,-758.122 431.315,-758.593 429.126,-759.021 426.92,-759.405 424.701,-759.743 422.469,-760.034 420.229,-760.278 417.981,-760.474 415.727,-760.621 413.47,-760.72 411.211,-760.769 408.951,-760.769 406.691,-760.72 404.434,-760.621 402.181,-760.474 399.933,-760.278 397.692,-760.034 395.461,-759.743 393.241,-759.405 391.036,-759.021 388.847,-758.593 386.679,-758.122 384.534,-757.609 382.418,-757.054 380.333,-756.461 378.286,-755.83 376.28,-755.164 374.322,-754.463 372.417,-753.731 370.572,-752.968 368.792,-752.177 367.086,-751.361 365.46,-750.521 363.92,-749.66 362.475,-748.78 361.133,-747.883 359.899,-746.973 358.783,-746.051 357.791,-745.12 356.931,-744.182 356.21,-743.241 355.633,-742.298 355.209,-741.356 354.941,-740.419 354.837,-739.488 354.9,-738.566 355.135,-737.655 355.545,-736.759 356.134,-735.879 356.902,-735.017 357.851,-734.177 358.981,-733.361 360.291,-732.57 361.78,-731.808 363.445,-731.075 365.283,-730.375 367.289,-729.708 369.457,-729.077 371.781,-728.484 374.254,-727.93 376.867,-727.416 379.612,-726.945 382.478,-726.517 385.454,-726.134 388.531,-725.796 391.695,-725.505 394.934,-725.261 398.234,-725.065 401.584,-724.917 404.969,-724.819 408.374,-724.769 411.787,-724.769 415.193,-724.819"/>
<text text-anchor="middle" x="410.081" y="-739.069" font-family="Times,serif" font-size="14.00" fill="white">knowledge</text>
</g>
<!-- what is the Young modulus\nof the distal striated\nfiber
20170119T161843Z:
discuss with ben
&#45;&gt;knowledge -->
<g id="edge3" class="edge"><title>what is the Young modulus\nof the distal striated\nfiber
20170119T161843Z:
discuss with ben
&#45;&gt;knowledge</title>
<path fill="none" stroke="white" d="M365.731,-709.115C365.731,-709.115 365.731,-720.202 365.731,-720.202"/>
<polygon fill="white" stroke="white" points="362.231,-720.202 365.731,-730.202 369.231,-720.202 362.231,-720.202"/>
</g>
<!-- what is the Young modulus\nof the distal striated\nfiber
20170119T161843Z:
discuss with ben
&#45;&gt;synchronization -->
<g id="edge14" class="edge"><title>what is the Young modulus\nof the distal striated\nfiber
20170119T161843Z:
discuss with ben
&#45;&gt;synchronization</title>
<path fill="none" stroke="white" stroke-width="5" stroke-dasharray="1,5" d="M341.452,-610.805C341.452,-610.805 341.452,-390.157 341.452,-390.157"/>
<polygon fill="white" stroke="white" stroke-width="5" points="341.89,-390.157 341.452,-389.157 341.015,-390.157 341.89,-390.157"/>
</g>
<!-- what is the Young modulus\nof the distal striated\nfiber
20170119T161843Z:
discuss with ben
&#45;&gt;started -->
<g id="edge6" class="edge"><title>what is the Young modulus\nof the distal striated\nfiber
20170119T161843Z:
discuss with ben
&#45;&gt;started</title>
<path fill="none" stroke="white" d="M296.158,-709.094C296.158,-709.094 296.158,-715.791 296.158,-715.791"/>
<polygon fill="white" stroke="white" points="292.658,-715.791 296.158,-725.791 299.658,-715.791 292.658,-715.791"/>
</g>
<!-- Histogramme und\nAehnliches aus Christians\nDaten
 -->
<g id="activate(&#39;task&#39;, &#39;Histogramme und\nAehnliches aus Christians\nDaten
&#39;)" class="node"><title>Histogramme und\nAehnliches aus Christians\nDaten
</title>
<path fill="#222299" stroke="white" d="M718.609,-254.684C718.609,-254.684 553.609,-254.684 553.609,-254.684 547.609,-254.684 541.609,-248.684 541.609,-242.684 541.609,-242.684 541.609,-204.684 541.609,-204.684 541.609,-198.684 547.609,-192.684 553.609,-192.684 553.609,-192.684 718.609,-192.684 718.609,-192.684 724.609,-192.684 730.609,-198.684 730.609,-204.684 730.609,-204.684 730.609,-242.684 730.609,-242.684 730.609,-248.684 724.609,-254.684 718.609,-254.684"/>
<text text-anchor="middle" x="636.109" y="-237.884" font-family="Times,serif" font-size="16.00" fill="white">Histogramme und</text>
<text text-anchor="middle" x="636.109" y="-219.884" font-family="Times,serif" font-size="16.00" fill="white">Aehnliches aus Christians</text>
<text text-anchor="middle" x="636.109" y="-201.884" font-family="Times,serif" font-size="16.00" fill="white">Daten</text>
</g>
<!-- Histogramme und\nAehnliches aus Christians\nDaten
&#45;&gt;paper -->
<g id="edge4" class="edge"><title>Histogramme und\nAehnliches aus Christians\nDaten
&#45;&gt;paper</title>
<path fill="none" stroke="#aa2211" d="M552.551,-255.025C552.551,-307.152 552.551,-406 552.551,-406 552.551,-406 507.45,-406 507.45,-406"/>
<polygon fill="#aa2211" stroke="#aa2211" points="507.45,-402.5 497.45,-406 507.45,-409.5 507.45,-402.5"/>
</g>
<!-- Histogramme und\nAehnliches aus Christians\nDaten
&#45;&gt;synchronization -->
<g id="edge24" class="edge"><title>Histogramme und\nAehnliches aus Christians\nDaten
&#45;&gt;synchronization</title>
<path fill="none" stroke="white" stroke-width="5" stroke-dasharray="1,5" d="M541.6,-229C493.414,-229 444.849,-229 444.849,-229 444.849,-229 444.849,-364.503 444.849,-364.503"/>
<polygon fill="white" stroke="white" stroke-width="5" points="444.411,-364.503 444.849,-365.503 445.286,-364.504 444.411,-364.503"/>
</g>
<!-- christian -->
<g id="activate(&#39;people&#39;, &#39;christian&#39;)" class="node"><title>christian</title>
<polygon fill="#dd9900" stroke="white" points="911.406,-153.807 911.406,-168.719 885.018,-179.263 847.699,-179.263 821.311,-168.719 821.311,-153.807 847.699,-143.263 885.018,-143.263 911.406,-153.807"/>
<text text-anchor="middle" x="866.359" y="-157.563" font-family="Times,serif" font-size="14.00">christian</text>
</g>
<!-- Histogramme und\nAehnliches aus Christians\nDaten
&#45;&gt;christian -->
<g id="edge9" class="edge"><title>Histogramme und\nAehnliches aus Christians\nDaten
&#45;&gt;christian</title>
<path fill="none" stroke="white" d="M721.799,-192.342C721.799,-176.671 721.799,-161 721.799,-161 721.799,-161 811.015,-161 811.015,-161"/>
<polygon fill="white" stroke="white" points="811.015,-164.5 821.015,-161 811.015,-157.5 811.015,-164.5"/>
</g>
<!-- analyse -->
<g id="activate(&#39;tags&#39;, &#39;analyse&#39;)" class="node"><title>analyse</title>
<polygon fill="#000000" stroke="white" stroke-width="2" points="748.777,0.346862 751.269,0.248324 753.735,0.100854 756.166,-0.0951425 758.55,-0.339129 760.88,-0.630438 763.145,-0.968269 765.337,-1.3517 767.447,-1.77967 769.467,-2.25102 771.391,-2.76444 773.212,-3.31855 774.923,-3.9118 776.52,-4.54259 777.996,-5.20917 779.349,-5.90973 780.575,-6.64234 781.672,-7.40499 782.637,-8.1956 783.469,-9.012 784.167,-9.85194 784.733,-10.7131 785.166,-11.5932 785.468,-12.4898 785.641,-13.4003 785.687,-14.3224 785.611,-15.2535 785.414,-16.1911 785.101,-17.1325 784.677,-18.0751 784.145,-19.0165 783.512,-19.9541 782.782,-20.8852 781.96,-21.8073 781.052,-22.7178 780.063,-23.6144 779,-24.4945 777.866,-25.3557 776.669,-26.1956 775.413,-27.012 774.103,-27.8026 772.744,-28.5653 771.341,-29.2979 769.9,-29.9984 768.423,-30.665 766.915,-31.2958 765.381,-31.8891 763.822,-32.4432 762.243,-32.9566 760.647,-33.4279 759.036,-33.8559 757.412,-34.2393 755.778,-34.5772 754.135,-34.8685 752.485,-35.1125 750.83,-35.3085 749.171,-35.4559 747.509,-35.5545 745.845,-35.6038 744.181,-35.6038 742.518,-35.5545 740.856,-35.4559 739.197,-35.3085 737.542,-35.1125 735.892,-34.8685 734.249,-34.5772 732.615,-34.2393 730.991,-33.8559 729.38,-33.4279 727.783,-32.9566 726.204,-32.4432 724.646,-31.8891 723.111,-31.2958 721.604,-30.665 720.127,-29.9984 718.685,-29.2979 717.283,-28.5653 715.924,-27.8026 714.614,-27.012 713.358,-26.1956 712.16,-25.3557 711.027,-24.4945 709.963,-23.6144 708.975,-22.7178 708.067,-21.8073 707.245,-20.8852 706.515,-19.9541 705.881,-19.0165 705.35,-18.0751 704.926,-17.1325 704.613,-16.1911 704.416,-15.2535 704.339,-14.3224 704.386,-13.4003 704.559,-12.4898 704.861,-11.5932 705.294,-10.7131 705.86,-9.85194 706.558,-9.012 707.39,-8.1956 708.355,-7.40499 709.451,-6.64234 710.677,-5.90973 712.03,-5.20917 713.507,-4.54259 715.103,-3.9118 716.815,-3.31855 718.635,-2.76444 720.559,-2.25102 722.58,-1.77967 724.69,-1.3517 726.882,-0.968269 729.147,-0.630438 731.476,-0.339129 733.861,-0.0951425 736.291,0.100854 738.758,0.248324 741.25,0.346862 743.757,0.396199 746.27,0.396199 748.777,0.346862"/>
<text text-anchor="middle" x="745.013" y="-13.9038" font-family="Times,serif" font-size="14.00" fill="white">analyse</text>
</g>
<!-- Histogramme und\nAehnliches aus Christians\nDaten
&#45;&gt;analyse -->
<g id="edge20" class="edge"><title>Histogramme und\nAehnliches aus Christians\nDaten
&#45;&gt;analyse</title>
<path fill="none" stroke="white" stroke-width="5" stroke-dasharray="1,5" d="M712.988,-192.385C712.988,-192.385 712.988,-27.2821 712.988,-27.2821"/>
<polygon fill="white" stroke="white" stroke-width="5" points="713.425,-27.2821 712.988,-26.2821 712.55,-27.2822 713.425,-27.2821"/>
</g>
<!-- check if the values of\n$k_b$ are consistent
20170110T102358Z:
I chose $k_b = 3.6\npN\mu m$
 -->
<g id="activate(&#39;task&#39;, &#39;check if the values of\n$k_b$ are consistent
20170110T102358Z:
I chose $k_b = 3.6\npN\mu m$
&#39;)" class="node"><title>check if the values of\n$k_b$ are consistent
20170110T102358Z:
I chose $k_b = 3.6\npN\mu m$
</title>
<path fill="#222299" stroke="white" d="M535.5,-662.727C535.5,-662.727 401.5,-662.727 401.5,-662.727 395.5,-662.727 389.5,-656.727 389.5,-650.727 389.5,-650.727 389.5,-576.727 389.5,-576.727 389.5,-570.727 395.5,-564.727 401.5,-564.727 401.5,-564.727 535.5,-564.727 535.5,-564.727 541.5,-564.727 547.5,-570.727 547.5,-576.727 547.5,-576.727 547.5,-650.727 547.5,-650.727 547.5,-656.727 541.5,-662.727 535.5,-662.727"/>
<text text-anchor="middle" x="468.5" y="-645.927" font-family="Times,serif" font-size="16.00" fill="white">check if the values of</text>
<text text-anchor="middle" x="468.5" y="-627.927" font-family="Times,serif" font-size="16.00" fill="white">$k_b$ are consistent</text>
<text text-anchor="middle" x="468.5" y="-609.927" font-family="Times,serif" font-size="16.00" fill="white">20170110T102358Z:</text>
<text text-anchor="middle" x="468.5" y="-591.927" font-family="Times,serif" font-size="16.00" fill="white">I chose $k_b = 3.6</text>
<text text-anchor="middle" x="468.5" y="-573.927" font-family="Times,serif" font-size="16.00" fill="white">pNmu m$</text>
</g>
<!-- check if the values of\n$k_b$ are consistent
20170110T102358Z:
I chose $k_b = 3.6\npN\mu m$
&#45;&gt;paper -->
<g id="edge8" class="edge"><title>check if the values of\n$k_b$ are consistent
20170110T102358Z:
I chose $k_b = 3.6\npN\mu m$
&#45;&gt;paper</title>
<path fill="none" stroke="#aa2211" d="M485.073,-564.583C485.073,-564.583 485.073,-447.209 485.073,-447.209"/>
<polygon fill="#aa2211" stroke="#aa2211" points="488.573,-447.209 485.073,-437.209 481.573,-447.209 488.573,-447.209"/>
</g>
<!-- check if the values of\n$k_b$ are consistent
20170110T102358Z:
I chose $k_b = 3.6\npN\mu m$
&#45;&gt;synchronization -->
<g id="edge5" class="edge"><title>check if the values of\n$k_b$ are consistent
20170110T102358Z:
I chose $k_b = 3.6\npN\mu m$
&#45;&gt;synchronization</title>
<path fill="none" stroke="white" stroke-width="5" stroke-dasharray="1,5" d="M406.957,-564.574C406.957,-564.574 406.957,-389.708 406.957,-389.708"/>
<polygon fill="white" stroke="white" stroke-width="5" points="407.395,-389.708 406.957,-388.708 406.52,-389.708 407.395,-389.708"/>
</g>
<!-- check if the values of\n$k_b$ are consistent
20170110T102358Z:
I chose $k_b = 3.6\npN\mu m$
&#45;&gt;started -->
<g id="edge12" class="edge"><title>check if the values of\n$k_b$ are consistent
20170110T102358Z:
I chose $k_b = 3.6\npN\mu m$
&#45;&gt;started</title>
<path fill="none" stroke="white" d="M506.476,-663.014C506.476,-711.402 506.476,-778 506.476,-778 506.476,-778 337.191,-778 337.191,-778"/>
<polygon fill="white" stroke="white" points="337.191,-774.5 327.191,-778 337.191,-781.5 337.191,-774.5"/>
</g>
<!-- paper.som&#45;&gt;paper -->
<g id="edge21" class="edge"><title>paper.som&#45;&gt;paper</title>
<path fill="none" stroke="#22ff22" stroke-width="2" d="M417.367,-241C449.994,-241 487.96,-241 487.96,-241 487.96,-241 487.96,-393.91 487.96,-393.91"/>
<ellipse fill="none" stroke="#22ff22" stroke-width="2" cx="487.96" cy="-397.91" rx="4" ry="4"/>
</g>
<!-- add biological details to\ndistal striated fiber and\ncompare to ben&#39;s message
 -->
<g id="activate(&#39;task&#39;, &#39;add biological details to\ndistal striated fiber and\ncompare to ben&#39;s message
&#39;)" class="node"><title>add biological details to\ndistal striated fiber and\ncompare to ben&#39;s message
</title>
<path fill="#222299" stroke="white" d="M735.603,-473.348C735.603,-473.348 569.603,-473.348 569.603,-473.348 563.603,-473.348 557.603,-467.348 557.603,-461.348 557.603,-461.348 557.603,-423.348 557.603,-423.348 557.603,-417.348 563.603,-411.348 569.603,-411.348 569.603,-411.348 735.603,-411.348 735.603,-411.348 741.603,-411.348 747.603,-417.348 747.603,-423.348 747.603,-423.348 747.603,-461.348 747.603,-461.348 747.603,-467.348 741.603,-473.348 735.603,-473.348"/>
<text text-anchor="middle" x="652.603" y="-456.548" font-family="Times,serif" font-size="16.00" fill="white">add biological details to</text>
<text text-anchor="middle" x="652.603" y="-438.548" font-family="Times,serif" font-size="16.00" fill="white">distal striated fiber and</text>
<text text-anchor="middle" x="652.603" y="-420.548" font-family="Times,serif" font-size="16.00" fill="white">compare to ben&#39;s message</text>
</g>
<!-- add biological details to\ndistal striated fiber and\ncompare to ben&#39;s message
&#45;&gt;paper -->
<g id="edge22" class="edge"><title>add biological details to\ndistal striated fiber and\ncompare to ben&#39;s message
&#45;&gt;paper</title>
<path fill="none" stroke="#aa2211" d="M557.58,-424C557.58,-424 526.578,-424 526.578,-424"/>
<polygon fill="#aa2211" stroke="#aa2211" points="526.578,-420.5 516.578,-424 526.578,-427.5 526.578,-420.5"/>
</g>
<!-- add biological details to\ndistal striated fiber and\ncompare to ben&#39;s message
&#45;&gt;synchronization -->
<g id="edge11" class="edge"><title>add biological details to\ndistal striated fiber and\ncompare to ben&#39;s message
&#45;&gt;synchronization</title>
<path fill="none" stroke="white" stroke-width="5" stroke-dasharray="1,5" d="M557.483,-446C494.871,-446 424.415,-446 424.415,-446 424.415,-446 424.415,-385.679 424.415,-385.679"/>
<polygon fill="white" stroke="white" stroke-width="5" points="424.853,-385.679 424.415,-384.679 423.978,-385.679 424.853,-385.679"/>
</g>
<!-- calcium figure\nindependent figure
 -->
<g id="activate(&#39;task&#39;, &#39;calcium figure\nindependent figure
&#39;)" class="node"><title>calcium figure\nindependent figure
</title>
<path fill="#222299" stroke="white" d="M238.402,-241.337C238.402,-241.337 119.402,-241.337 119.402,-241.337 113.402,-241.337 107.402,-235.337 107.402,-229.337 107.402,-229.337 107.402,-209.337 107.402,-209.337 107.402,-203.337 113.402,-197.337 119.402,-197.337 119.402,-197.337 238.402,-197.337 238.402,-197.337 244.402,-197.337 250.402,-203.337 250.402,-209.337 250.402,-209.337 250.402,-229.337 250.402,-229.337 250.402,-235.337 244.402,-241.337 238.402,-241.337"/>
<text text-anchor="middle" x="178.902" y="-224.537" font-family="Times,serif" font-size="16.00" fill="white">calcium figure</text>
<text text-anchor="middle" x="178.902" y="-206.537" font-family="Times,serif" font-size="16.00" fill="white">independent figure</text>
</g>
<!-- calcium figure\nindependent figure
&#45;&gt;figure -->
<g id="edge23" class="edge"><title>calcium figure\nindependent figure
&#45;&gt;figure</title>
<path fill="none" stroke="white" d="M107.324,-219C71.1837,-219 34.9019,-219 34.9019,-219 34.9019,-219 34.9019,-327.243 34.9019,-327.243"/>
<polygon fill="white" stroke="white" points="31.4018,-327.243 34.9019,-337.243 38.4018,-327.243 31.4018,-327.243"/>
</g>
<!-- calcium figure\nindependent figure
&#45;&gt;synchronization -->
<g id="edge15" class="edge"><title>calcium figure\nindependent figure
&#45;&gt;synchronization</title>
<path fill="none" stroke="white" stroke-width="5" stroke-dasharray="1,5" d="M250.461,-207C328.384,-207 442.05,-207 442.05,-207 442.05,-207 442.05,-362.769 442.05,-362.769"/>
<polygon fill="white" stroke="white" stroke-width="5" points="441.612,-362.769 442.05,-363.769 442.487,-362.769 441.612,-362.769"/>
</g>
<!-- calcium figure\nindependent figure
&#45;&gt;paper.som -->
<g id="edge25" class="edge"><title>calcium figure\nindependent figure
&#45;&gt;paper.som</title>
<path fill="none" stroke="#aa2211" d="M250.519,-229C250.519,-229 316.076,-229 316.076,-229"/>
<polygon fill="#aa2211" stroke="#aa2211" points="316.076,-232.5 326.076,-229 316.076,-225.5 316.076,-232.5"/>
</g>
</g>
</svg>
